# xmcd CD database file generated by Grip 3.0.5
# 
# Track frame offsets:
#       150
#       15625
#       29350
#       37675
#       51887
#       63212
#       79262
#       90062
#       100412
#       116162
# 
# Disc length: 1687 seconds
# 
# Revision: 2
# Processed by: cddbd v1.5.1PL0 Copyright (c) Steve Scherf et al.
# Submitted via: Grip 3.0.5
# 
DISCID=6e06950a
DTITLE=Riders In the Sky - 'Weeds and Water
DYEAR=1983
DGENRE=Country
TTITLE0=Cool Water
TTITLE1=West Texas Cowboy
TTITLE2=La Cucaracha
TTITLE3=Streets of Loredo (The Cowboy's Lament)
TTITLE4=Singing a Song To the Sky
TTITLE5=Tumbling Tumbleweeds
TTITLE6=Pecos Bill
TTITLE7=That's How the Yodel Was Born
TTITLE8=Wasteland
TTITLE9=Bound To Hit the Trail
EXTD=
EXTT0=
EXTT1=
EXTT2=
EXTT3=
EXTT4=
EXTT5=
EXTT6=
EXTT7=
EXTT8=
EXTT9=
PLAYORDER=
